<svg width="38" height="40" viewBox="0 0 38 40" fill="none" xmlns="http://www.w3.org/2000/svg">
<path d="M35.9517 17.079L21.6979 3.76487C19.741 1.93772 16.6632 2.06274 14.8583 4.04375L11.8043 7.38069C17.4612 9.98677 20.596 8.91453 24.0537 10.4243C31.9239 13.718 33.4866 23.9019 27.578 29.5372C23.2605 33.5761 17.1192 33.5184 12.3078 30.3931C8.19454 27.6139 4.56579 20.5553 3.98158 15.5067C3.22163 16.4924 2.47118 17.4877 1.70648 18.4686C0.082092 20.5602 0.0250959 23.5653 1.98196 25.3925L16.2358 38.7066C18.1926 40.5337 21.2704 40.4087 23.0753 38.4277L36.2271 23.9981C38.032 22.0171 37.9085 18.9013 35.9517 17.0742V17.079Z" fill="#3EAC52"/>
<path d="M17.8839 9.92907C13.1437 9.69827 5.67246 7.19316 3.53986 0.0144166C3.53511 -0.00962476 3.49711 -0.00481649 3.50186 0.0240331C4.24756 6.06803 8.96874 10.8619 13.158 12.2226C13.1627 12.2226 13.1722 12.2226 13.177 12.2226C15.0246 10.7801 15.7275 10.4243 17.8886 9.96754C17.9076 9.96754 17.9076 9.93869 17.8886 9.93869L17.8839 9.92907Z" fill="#3EAC52"/>
<path d="M9.36771 17.3771C7.08787 16.05 4.58004 13.1506 3.6396 10.8186C3.61585 10.7561 3.52561 10.7849 3.53511 10.8474C4.63228 16.3 6.76964 22.8104 9.91393 27.2629C9.92343 27.2773 9.94718 27.2629 9.93768 27.2437C9.13973 25.705 8.65526 23.9596 8.58877 22.0988C8.52702 20.4351 8.80725 18.8388 9.36771 17.3771Z" fill="#3EAC52"/>
<path d="M3.63485 5.04868C3.61585 5.00059 3.54936 5.01502 3.54936 5.0631C3.56361 9.34727 6.87888 14.0161 9.67169 16.526C9.69544 16.5452 9.72869 16.5356 9.73819 16.5116C10.4221 15.0691 11.3863 13.7853 12.5595 12.7323C12.588 12.7082 12.5737 12.665 12.5405 12.6602C8.71701 11.7129 4.96001 8.47216 3.6301 5.04868H3.63485Z" fill="#3EAC52"/>
<path d="M26.4903 14.3238C16.7107 5.35641 4.05282 19.1994 13.101 28.3688C22.8568 36.7736 35.0065 23.5076 26.4903 14.3238ZM24.5239 18.4493C24.8137 17.4444 25.0797 16.3866 25.4074 15.372C25.4169 15.3384 25.4501 15.3239 25.4834 15.3336C26.0201 15.5115 26.8845 15.6221 27.274 16.0163C27.274 16.0163 27.274 16.0211 27.2788 16.026C28.2002 17.2809 28.7417 19.0119 28.4899 20.7477C28.4092 21.2958 28.3189 22.0459 28.1004 22.3007C28.0862 22.3152 28.0672 22.3248 28.0482 22.32C27.388 22.2527 26.704 22.1805 26.0676 22.0123C26.0486 22.0123 26.0391 21.9978 26.0296 21.9786C25.1461 20.214 24.5049 18.9446 24.5239 18.4589C24.5239 18.4541 24.5239 18.4493 24.5239 18.4445V18.4493ZM20.0355 12.0495C19.3705 12.2851 17.6037 12.9054 17.3994 12.9775C17.3994 12.9775 17.3899 12.9775 17.3852 12.9775C16.9435 13.0304 16.06 12.9775 15.3713 13.1362C15.3048 13.1506 15.2668 13.0641 15.3238 13.0256C16.364 12.3669 18.6771 11.8283 20.0212 11.9293C20.0877 11.9293 20.0972 12.0255 20.0355 12.0495ZM11.7188 22.6421C11.4671 22.9643 11.2011 23.272 10.9304 23.5894C10.9019 23.6278 10.8401 23.6134 10.8259 23.5701C10.1562 21.5843 10.4126 18.3051 12.1985 15.8432C12.227 15.8048 12.2888 15.8144 12.303 15.8625C12.8682 17.656 12.493 17.3627 12.1558 18.4878C11.3531 21.2333 11.999 22.0026 11.7236 22.6277C11.7236 22.6325 11.7188 22.6373 11.7141 22.6421H11.7188ZM12.5832 22.9787C12.0465 21.2189 12.512 18.7042 13.2435 17.6031C13.2435 17.6031 13.2435 17.6031 13.2482 17.5983C13.6994 17.0645 14.5211 16.9491 15.1386 16.627C16.364 15.9827 16.8485 16.6943 17.2949 17.0742C18.5963 18.1704 19.9547 19.1032 19.7695 19.637C18.9336 23.7577 19.399 23.2095 18.4966 23.599C14.4451 25.1376 14.9248 26.1329 12.5927 23.0028C12.5927 22.9979 12.5832 22.9883 12.5832 22.9835V22.9787ZM17.1809 30.1911C16.0933 29.9459 14.1981 28.8256 13.3242 27.9553C13.2767 27.912 13.3242 27.8351 13.3859 27.8543C14.9771 28.4024 15.9508 29.4939 17.2284 30.0757C17.2949 30.1046 17.2617 30.2104 17.1904 30.1911C17.1904 30.1911 17.1904 30.1911 17.1857 30.1911H17.1809ZM22.2251 29.0275C19.7363 30.47 18.6628 29.9603 16.8057 29.1141C16.8057 29.1141 16.8057 29.1141 16.801 29.1141C16.2262 28.7679 15.5565 28.4457 15.2241 27.9216C15.2241 27.9168 15.2193 27.9072 15.2146 27.9024C15.0436 27.2004 14.8251 25.8156 15.1956 25.6713C15.5233 25.5319 19.0096 24.0606 19.1473 23.9981C19.209 23.9692 19.2993 23.9452 19.3753 23.9885C20.0022 24.3683 22.5908 25.479 22.5291 25.7146C22.3913 27.5466 22.5196 28.7631 22.2346 29.0227C22.2346 29.0227 22.2251 29.0275 22.2251 29.0323V29.0275ZM24.8042 15.2085C23.5977 19.2571 24.4574 18.1656 21.9496 18.6561C21.9496 18.6561 21.9449 18.6561 21.9401 18.6561C21.0662 18.6945 20.406 19.1658 19.8788 18.5599C18.0549 16.8289 16.5682 15.848 16.7392 15.5355C17.7794 12.9727 18.0644 13.1843 20.2255 12.6505C22.1681 11.9966 24.8184 14.6796 24.8089 15.1989C24.8089 15.2037 24.8089 15.2085 24.8089 15.2134L24.8042 15.2085ZM27.9342 24.5943C27.616 26.6522 26.0248 28.2967 24.2532 29.2824C24.2437 29.2872 24.2295 29.292 24.2152 29.2872C23.8827 29.2391 23.2415 28.9891 23.023 28.9025C22.9993 28.8929 22.985 28.8688 22.985 28.8448C22.9898 28.7486 22.9993 28.5323 23.0135 28.2534C23.1893 26.4936 22.8948 25.6377 23.5028 25.1713C25.3171 23.4066 25.7921 22.6373 26.1008 22.695C28.3474 23.0364 28.3047 22.5796 27.9247 24.5991L27.9342 24.5943Z" fill="#3EAC52"/>
</svg>
